<svg viewBox="0 0 200 60" fill="none" xmlns="http://www.w3.org/2000/svg">
  <rect x="10" y="20" width="180" height="20" rx="10" fill="#1C3C3C"/>
  <path d="M30 30c0-2.2 1.8-4 4-4s4 1.8 4 4-1.8 4-4 4-4-1.8-4-4z" fill="black"/>
  <path d="M50 30c0-2.2 1.8-4 4-4s4 1.8 4 4-1.8 4-4 4-4-1.8-4-4z" fill="black"/>
  <path d="M70 30c0-2.2 1.8-4 4-4s4 1.8 4 4-1.8 4-4 4-4-1.8-4-4z" fill="black"/>
  <path d="M90 30c0-2.2 1.8-4 4-4s4 1.8 4 4-1.8 4-4 4-4-1.8-4-4z" fill="black"/>
  <path d="M110 30c0-2.2 1.8-4 4-4s4 1.8 4 4-1.8 4-4 4-4-1.8-4-4z" fill="black"/>
  <path d="M130 30c0-2.2 1.8-4 4-4s4 1.8 4 4-1.8 4-4 4-4-1.8-4-4z" fill="black"/>
  <path d="M150 30c0-2.2 1.8-4 4-4s4 1.8 4 4-1.8 4-4 4-4-1.8-4-4z" fill="black"/>
  <path d="M170 30c0-2.2 1.8-4 4-4s4 1.8 4 4-1.8 4-4 4-4-1.8-4-4z" fill="black"/>
</svg>
