<svg viewBox="0 0 24 24" fill="none" xmlns="http://www.w3.org/2000/svg">
  <path d="M14.25 0h-8.5A2.25 2.25 0 0 0 3.5 2.25v19.5A2.25 2.25 0 0 0 5.75 24h8.5a2.25 2.25 0 0 0 2.25-2.25V2.25A2.25 2.25 0 0 0 14.25 0z" fill="#3776ab"/>
  <path d="M8.5 2.5c-.69 0-1.25.56-1.25 1.25s.56 1.25 1.25 1.25 1.25-.56 1.25-1.25-.56-1.25-1.25-1.25z" fill="#ffd43b"/>
  <path d="M8.5 18.5c-.69 0-1.25.56-1.25 1.25s.56 1.25 1.25 1.25 1.25-.56 1.25-1.25-.56-1.25-1.25-1.25z" fill="#ffd43b"/>
  <path d="M12 6.5c-2.21 0-4 1.79-4 4s1.79 4 4 4 4-1.79 4-4-1.79-4-4-4zm0 6c-1.1 0-2-.9-2-2s.9-2 2-2 2 .9 2 2-.9 2-2 2z" fill="#ffd43b"/>
</svg>
